<svg xmlns="http://www.w3.org/2000/svg" xmlns:xlink="http://www.w3.org/1999/xlink" version="1.1" x="0px" y="0px" viewBox="0 0 100 125" style="enable-background:new 0 0 100 100;" xml:space="preserve"><g><path d="M67.3,26.2c-1.4-6.2-2.5-8.4-5.4-10.3c-0.9-0.6-2.1-0.4-4.3-2.1c-0.7-0.5-1.7-1-2.7-1.5c-3.1-1.4-6.7-1.4-9.9,0   c-1,0.5-2,1-2.7,1.5c-2.3,1.6-3.4,1.5-4.3,2.1c-2.9,1.9-3.9,4.1-5.4,10.3c0,0,4.3-0.8,7.6,0c3.8,1,6.8,1.6,9.7,1.6   c2.9,0,5.9-0.7,9.7-1.6C63,25.4,67.3,26.2,67.3,26.2z"/><path d="M45.2,30.3c0.4,2.3,1.7,6.5,5,6.5c3.3,0,4.3-4.1,4.7-6.4c-1.6,0.3-3.3,0.6-5.1,0.6C48,30.9,46.5,30.7,45.2,30.3z"/><path d="M43.6,29.8c-1.9-0.6-3.7-1.2-6.2-1.3c-4.9-0.2-6.8,1.2-6.8,1.2s-3.1,15-2.9,26.2C28,67,36.2,79.6,50.2,79.6l-1-41.4   C45.1,37.4,43.9,32,43.6,29.8z"/><path d="M69.4,30.1c0,0-3.3-1.6-6.6-1.4c-1.8,0.1-4,0.8-6.4,1.4c-0.3,2.4-1.3,7.4-5.2,8.1l-1,41.4c14,0,22.9-12.2,22.9-24.5   S69.4,30.1,69.4,30.1z"/><path d="M42,9c-1.7,1.7-1.9,3.9-1.9,3.9s4.7-3.2,9.7-3.2c4.9,0,9.7,3.2,9.7,3.2s-0.2-2.2-1.9-3.9C55.9,7.3,55.4,6.7,53,6   c-1.5-0.4-2.7-0.4-3.2-0.4c-0.6-0.1-1.4,0.1-3.1,0.4C44.2,6.5,43.7,7.3,42,9z"/><path d="M27.3,13.9l-1.6,0.4c-0.2,0-0.1,0.3,0,0.3c2,0.4,2.2,1.5,2.2,2.2c0,0.3-0.2,0.5-0.4,0.7c-0.3,0.2-0.2,0.6,0.1,0.7l1,0.4   l3.1,3.6l1.5-3.6c-3.7-2.8-2.6-5.3-4.8-6.6c-2.2-1.4-3.6-0.8-3.6-0.8l1.1,0.8C27.3,12.5,27.3,13.9,27.3,13.9z"/><path d="M71.3,18.2l1-0.4c0.3-0.1,0.4-0.5,0.1-0.7c-0.2-0.2-0.4-0.4-0.4-0.7c0-0.7,0.3-1.8,2.2-2.2c0.2,0,0.2-0.3,0-0.3l-1.6-0.4   c0,0,0-1.4,1.4-1.9l1.1-0.8c0,0-1.4-0.6-3.6,0.8c-2.2,1.4-1.1,3.9-4.8,6.6l1.5,3.6L71.3,18.2z"/><path d="M19.3,41.5c0,0,0,2.7,0.6,2.7s1-3.7,2.3-5.4s5.1-3.9,5.1-3.9l0.8-4.5C21.6,32.8,16,40.6,16,40.6s-1,1-1.8,2.5   c-0.5,0.2-1.3,0.6-1.3,0.8c0,0.1,0.3,0.3,0.8,0.5c-0.2,0.4-0.3,0.9-0.4,1.4c0,0.1,0,0.3-0.1,0.4c-0.5,0.4-1.1,0.9-1,1   c0,0.1,0.4,0.2,0.9,0.3c-0.1,0.6-0.1,1.3-0.1,2c-0.4,0.4-0.8,1-0.8,1.1c0,0.1,0.3,0.1,0.7,0.1c0,2.4,0.2,4.5,0.7,4.5   c1,0,1-1.6,0.8-3.1c0-0.3-0.1-0.8-0.2-1.5c0.6-0.1,1.1-0.2,1-0.3c-0.1-0.2-0.6-0.5-1.1-0.9c0-0.6,0-1.2,0.1-1.9c0.6,0,1,0,1-0.1   c0-0.2-0.4-0.6-0.8-1c0.1-0.6,0.2-1.1,0.4-1.7C15.6,45,16,45.1,16,45c0-0.2-0.2-0.6-0.5-1c0.4-0.7,0.8-1.4,1.5-2l0.6,0.9L19.3,41.5   z"/><path d="M86.9,49.5c0-0.7-0.1-1.4-0.1-2c0.5-0.1,0.9-0.2,0.9-0.3c0-0.2-0.6-0.7-1-1c0-0.1,0-0.3-0.1-0.4c-0.1-0.5-0.2-1-0.4-1.4   c0.4-0.2,0.8-0.4,0.8-0.5c0-0.2-0.8-0.6-1.3-0.8c-0.8-1.5-1.8-2.5-1.8-2.5s-5.6-7.8-12.2-10.3l0.8,4.5c0,0,3.9,2.3,5.1,3.9   c1.2,1.6,1.6,5.4,2.3,5.4c0.6,0,0.6-2.7,0.6-2.7l1.9,1.4l0.6-0.9c0.6,0.6,1.1,1.2,1.5,2c-0.3,0.4-0.5,0.9-0.5,1   c0,0.1,0.4,0,0.9-0.1c0.2,0.6,0.3,1.1,0.4,1.7c-0.4,0.4-0.8,0.8-0.8,1c0,0.1,0.4,0.1,1,0.1c0.1,0.7,0.1,1.3,0.1,1.9   c-0.5,0.3-1,0.7-1.1,0.9c-0.1,0.1,0.4,0.2,1,0.3c0,0.7-0.1,1.2-0.2,1.5c-0.2,1.4-0.2,3.1,0.8,3.1c0.6,0,0.8-2.1,0.7-4.5   c0.4,0,0.7,0,0.7-0.1C87.8,50.5,87.3,49.9,86.9,49.5z"/><path d="M28.4,80c1-1.2-0.6-0.8-1.9-3.5c-1.2-2.7-6.4-15.2-6.8-16.5c-0.4-1.2,0.6-2.1,0.6-2.1l5.8-0.2c-0.4-2.1-0.2-7.4-0.2-7.4   s-6.4,4.3-8,7C16.3,60,21.4,77.1,22,78.7c0.6,1.6,1.9,1.6,1.9,1.6s0.1-0.4,0.4-0.9c0.2,0.7,0.5,1.7,0.8,2.8   c-0.3,0.5-0.6,0.9-0.5,1.1c0,0.1,0.3,0.1,0.7,0c0.1,0.6,0.2,1.2,0.3,1.7c-0.3,0.5-0.7,1.1-0.6,1.2c0,0.1,0.4,0.1,0.8,0   c0,0.3,0,0.5,0.1,0.7c0,0.3,0,0.6,0,1c-0.5,0.4-0.9,0.8-0.9,0.9c0,0.1,0.4,0.2,0.8,0.3c-0.1,0.8-0.2,1.7-0.3,2.4   c-0.5,0.3-1.1,0.7-1.1,0.8c0,0.1,0.4,0.3,0.9,0.4c-0.2,1.4-0.4,2.6-0.2,3c0.8,1.7,2.9,1.2,2.9,1.2s-1.6-1.9-1.2-3.3   c0-0.1,0.1-0.3,0.1-0.5c0.6,0.1,1,0.2,1,0c0-0.2-0.4-0.7-0.8-1.2c0.1-0.7,0.3-1.6,0.4-2.7c0.6,0,1,0,1-0.1c0-0.2-0.5-0.7-0.9-1.1   c0-0.7,0-1.5,0-2.3c0.6-0.1,1-0.3,0.9-0.4c-0.1-0.1-0.5-0.4-1-0.6c-0.1-0.6-0.2-1.3-0.3-2c0.5-0.1,0.9-0.3,0.8-0.4   C28,82.6,27.5,82.3,27,82c-0.3-1-0.6-2.1-1.1-3.1c0.1,0,0.1,0,0.2,0C28,79.3,27.4,81.2,28.4,80z"/><path d="M75.1,50.9c0,0,0.2,5.4-0.2,7.4l5.8,0.2c0,0,1,0.8,0.6,2.1c-0.4,1.2-5.6,13.8-6.8,16.5c-1.2,2.7-2.9,2.3-1.9,3.5   c1,1.2,0.4-0.6,2.3-1c0.1,0,0.1,0,0.2,0c-0.5,1-0.8,2.1-1.1,3.1c-0.5,0.3-1,0.5-1.1,0.7c-0.1,0.1,0.3,0.3,0.8,0.4   c-0.1,0.7-0.2,1.3-0.3,2c-0.5,0.3-0.9,0.5-1,0.6c-0.1,0.1,0.3,0.3,0.9,0.4c0,0.8,0,1.6,0,2.3c-0.4,0.5-0.9,0.9-0.9,1.1   c0,0.1,0.4,0.1,1,0.1c0.1,1,0.2,1.9,0.4,2.7c-0.4,0.5-0.8,1-0.8,1.2c0,0.1,0.4,0.1,1,0c0,0.2,0.1,0.4,0.1,0.5   c0.4,1.4-1.2,3.3-1.2,3.3s2.1,0.5,2.9-1.2c0.2-0.4,0-1.5-0.2-3c0.5-0.2,0.9-0.3,0.9-0.4c0-0.2-0.5-0.5-1.1-0.8   c-0.1-0.8-0.2-1.6-0.3-2.4c0.5-0.1,0.8-0.2,0.8-0.3c0-0.2-0.4-0.5-0.9-0.9c0-0.3,0-0.6,0-1c0-0.2,0-0.5,0.1-0.7c0.4,0,0.7,0,0.8,0   c0.1-0.1-0.3-0.7-0.6-1.2c0.1-0.6,0.2-1.2,0.3-1.7c0.4,0,0.7,0,0.7,0c0.1-0.1-0.2-0.6-0.5-1.1c0.3-1.1,0.5-2.1,0.8-2.8   c0.3,0.4,0.4,0.9,0.4,0.9s1.2,0,1.9-1.6c0.6-1.6,5.8-18.7,4.1-21.4C81.4,55.2,75.1,50.9,75.1,50.9z"/><path d="M41.4,6.1c0.5-0.1,2,0.5,2,0.5l1-0.5L45,5.8c0,0-1-0.8-1.7-1c-0.7-0.2-1,0.4-1,0.4S41.4,5,39.8,5.6c-1.6,0.6-2,0.3-2,0.3   s-0.2-4.2-1-3.8c-0.8,0.4-0.7,3.7,0.3,4.8C38,7.9,40.2,6.3,41.4,6.1z"/><path d="M55.9,6.1l0.7,0.4c0,0,1.4-0.6,2-0.5c1.1,0.2,3.3,1.8,4.3,0.8s1-4.4,0.3-4.8c-0.8-0.4-1,3.8-1,3.8s-0.4,0.2-2-0.3   c-1.6-0.6-2.5-0.4-2.5-0.4s-0.3-0.7-1-0.4c-0.7,0.2-1.7,1-1.7,1l0.5,0.2C55.6,5.9,55.7,6,55.9,6.1z"/></g><text x="0" y="115" fill="#000000" font-size="5px" font-weight="bold" font-family="'Helvetica Neue', Helvetica, Arial-Unicode, Arial, Sans-serif">Created by parkjisun</text><text x="0" y="120" fill="#000000" font-size="5px" font-weight="bold" font-family="'Helvetica Neue', Helvetica, Arial-Unicode, Arial, Sans-serif">from the Noun Project</text></svg>